/* XPM */
static char * application_x_java_xpm[] = {
"39 39 796 2",
"  	c None",
". 	c #050505",
"+ 	c #060606",
"@ 	c #101010",
"# 	c #000000",
"$ 	c #171717",
"% 	c #737373",
"& 	c #7B7B7B",
"* 	c #696969",
"= 	c #828282",
"- 	c #777777",
"; 	c #7A7A7A",
"> 	c #7E7E7E",
", 	c #808080",
"' 	c #707070",
") 	c #858585",
"! 	c #717171",
"~ 	c #727272",
"{ 	c #7C7C7C",
"] 	c #747474",
"^ 	c #6E6E6E",
"/ 	c #6F6F6F",
"( 	c #5B5B5B",
"_ 	c #3D3D3D",
": 	c #020202",
"< 	c #7D7D7D",
"[ 	c #6C6C6C",
"} 	c #666666",
"| 	c #686868",
"1 	c #626262",
"2 	c #767676",
"3 	c #5E5E5E",
"4 	c #6D6D6D",
"5 	c #636363",
"6 	c #676767",
"7 	c #616161",
"8 	c #646464",
"9 	c #555555",
"0 	c #6B6B6B",
"a 	c #595959",
"b 	c #4E4E4E",
"c 	c #333333",
"d 	c #373737",
"e 	c #080808",
"f 	c #0C0C0C",
"g 	c #515151",
"h 	c #5A5A5A",
"i 	c #4D4D4D",
"j 	c #656565",
"k 	c #474747",
"l 	c #505050",
"m 	c #575757",
"n 	c #494949",
"o 	c #585858",
"p 	c #535353",
"q 	c #4C4C4C",
"r 	c #4B4B4B",
"s 	c #353535",
"t 	c #272727",
"u 	c #030303",
"v 	c #525252",
"w 	c #5C5C5C",
"x 	c #6A6A6A",
"y 	c #5F5F5F",
"z 	c #454545",
"A 	c #464646",
"B 	c #343434",
"C 	c #323232",
"D 	c #1E1E1E",
"E 	c #121212",
"F 	c #B3B3B3",
"G 	c #F7F7F7",
"H 	c #B1B1B1",
"I 	c #A1A1A1",
"J 	c #FFFFFF",
"K 	c #ACACAC",
"L 	c #EFEFEF",
"M 	c #A6A6A6",
"N 	c #ADADAD",
"O 	c #969696",
"P 	c #A3A3A3",
"Q 	c #FAFAFA",
"R 	c #383838",
"S 	c #191919",
"T 	c #898989",
"U 	c #FEFEFE",
"V 	c #FCFCFC",
"W 	c #545454",
"X 	c #F5F5F5",
"Y 	c #8C8C8C",
"Z 	c #FBFBFB",
"` 	c #818181",
" .	c #F6F6F6",
"..	c #878787",
"+.	c #4F4F4F",
"@.	c #999999",
"#.	c #363636",
"$.	c #2F2F2F",
"%.	c #262626",
"&.	c #040404",
"*.	c #F8F8F8",
"=.	c #F4F4F4",
"-.	c #838383",
";.	c #F0F0F0",
">.	c #3C3C3C",
",.	c #2B2B2B",
"'.	c #0A0A0A",
").	c #A5A5A5",
"!.	c #AFAFAF",
"~.	c #B2B2B2",
"{.	c #FAFCF9",
"].	c #A8A8A6",
"^.	c #5E5A59",
"/.	c #ACA8A7",
"(.	c #FCFBF9",
"_.	c #A1A29D",
":.	c #555553",
"<.	c #474944",
"[.	c #F4F9F5",
"}.	c #4C4C4A",
"|.	c #2F2526",
"1.	c #362A2C",
"2.	c #1B0F11",
"3.	c #928889",
"4.	c #606060",
"5.	c #5F615E",
"6.	c #565B54",
"7.	c #5A5B53",
"8.	c #584D49",
"9.	c #695E5A",
"0.	c #534E48",
"a.	c #55574C",
"b.	c #51544B",
"c.	c #464E41",
"d.	c #475347",
"e.	c #818179",
"f.	c #D7BABC",
"g.	c #FCD5DA",
"h.	c #FFE0E7",
"i.	c #FEE1E5",
"j.	c #D7C4C6",
"k.	c #010101",
"l.	c #565656",
"m.	c #B0B0B0",
"n.	c #BABABA",
"o.	c #ABADAA",
"p.	c #FBFFFA",
"q.	c #B0B2A7",
"r.	c #65534F",
"s.	c #AD9593",
"t.	c #FFF9F6",
"u.	c #8D8078",
"v.	c #B7B5A9",
"w.	c #FFFFF4",
"x.	c #BEBCB0",
"y.	c #E6D9D1",
"z.	c #CDABAC",
"A.	c #B78A8F",
"B.	c #C499A0",
"C.	c #AE8A8E",
"D.	c #111111",
"E.	c #A8A8A8",
"F.	c #F9F9F9",
"G.	c #8B8B8B",
"H.	c #EBEBEB",
"I.	c #949494",
"J.	c #F0F5F1",
"K.	c #727F75",
"L.	c #FBFEF5",
"M.	c #6E5958",
"N.	c #E5BCC0",
"O.	c #FFEEF5",
"P.	c #EFC2C7",
"Q.	c #BFAAA7",
"R.	c #FFF1ED",
"S.	c #E2BEC0",
"T.	c #CEA5A9",
"U.	c #E8CACC",
"V.	c #C5ABAC",
"W.	c #CBAEB2",
"X.	c #FADBE0",
"Y.	c #B79A9F",
"Z.	c #868686",
"`.	c #F2F2F2",
" +	c #9A9A9A",
".+	c #F9FEFA",
"++	c #88938B",
"@+	c #F8F9F3",
"#+	c #AB8D8F",
"$+	c #FFD1DA",
"%+	c #B87984",
"&+	c #AC737C",
"*+	c #F7D5D6",
"=+	c #FFE2E1",
"-+	c #CA8E98",
";+	c #FBC2CB",
">+	c #CDADAE",
",+	c #604E4C",
"'+	c #463837",
")+	c #C8B4B5",
"!+	c #FFE7EE",
"~+	c #AB8E93",
"{+	c #F9F1EF",
"]+	c #0D0D0D",
"^+	c #5D5D5D",
"/+	c #B4B4B4",
"(+	c #A9A9A9",
"_+	c #A9ABA8",
":+	c #F6FBF5",
"<+	c #DFD5D3",
"[+	c #FFE1E8",
"}+	c #A96F7B",
"|+	c #B07881",
"1+	c #FFD2D8",
"2+	c #FCD2D4",
"3+	c #C08F92",
"4+	c #FFE2EC",
"5+	c #BF8089",
"6+	c #D5AEB1",
"7+	c #554641",
"8+	c #4C4D45",
"9+	c #A09B95",
"0+	c #FFE4EA",
"a+	c #BC979E",
"b+	c #FFFCFA",
"c+	c #959595",
"d+	c #615D5C",
"e+	c #766C6B",
"f+	c #FFE8EB",
"g+	c #AF7D86",
"h+	c #C18C94",
"i+	c #FFE2E2",
"j+	c #9B7C79",
"k+	c #FFE9E9",
"l+	c #C79395",
"m+	c #FFCCD3",
"n+	c #E09FA5",
"o+	c #E2B6B7",
"p+	c #7E6964",
"q+	c #53594D",
"r+	c #B2B2A8",
"s+	c #FFE7EC",
"t+	c #B58A91",
"u+	c #FFFAF7",
"v+	c #070707",
"w+	c #797979",
"x+	c #A4A4A4",
"y+	c #ABABAB",
"z+	c #B7ADAE",
"A+	c #FFE5EA",
"B+	c #E5B6BC",
"C+	c #EEBBC0",
"D+	c #BD9796",
"E+	c #D2CCBE",
"F+	c #777463",
"G+	c #DABFB6",
"H+	c #EEBEBA",
"I+	c #CD908F",
"J+	c #FFE9EA",
"K+	c #F1BEBD",
"L+	c #DDBEB9",
"M+	c #77786A",
"N+	c #CAC6BA",
"O+	c #ECBFC2",
"P+	c #DEADB1",
"Q+	c #EEEEEE",
"R+	c #8A8A8A",
"S+	c #B2A2A5",
"T+	c #FFEFF8",
"U+	c #B87C84",
"V+	c #E4B8B9",
"W+	c #F0DACF",
"X+	c #F1F4DF",
"Y+	c #AFB19B",
"Z+	c #C8AE9F",
"`+	c #FFD2C9",
" @	c #D7908E",
".@	c #FFC4C4",
"+@	c #B27773",
"@@	c #FFDDD5",
"#@	c #E7D7C8",
"$@	c #F7E3D8",
"%@	c #C38C8F",
"&@	c #FFE1E5",
"*@	c #F1F1F1",
"=@	c #705C5E",
"-@	c #FFE9F3",
";@	c #BE8085",
">@	c #E3C5BD",
",@	c #D8CDBB",
"'@	c #FFFFEA",
")@	c #B9AA95",
"!@	c #C19C8A",
"~@	c #FBBBB1",
"{@	c #E38384",
"]@	c #CB696A",
"^@	c #C8837C",
"/@	c #C9978C",
"(@	c #F8CDC4",
"_@	c #AA7974",
":@	c #FFDEE0",
"<@	c #C68E91",
"[@	c #CCB4B2",
"}@	c #848484",
"|@	c #F3F3F3",
"1@	c #6D5A5C",
"2@	c #FFDAE0",
"3@	c #D59D9E",
"4@	c #F9E3D6",
"5@	c #B8AD99",
"6@	c #D7C2AF",
"7@	c #D2AB9A",
"8@	c #D28F86",
"9@	c #D1746F",
"0@	c #F37A7F",
"a@	c #BC484B",
"b@	c #EA9A93",
"c@	c #E4A69B",
"d@	c #C98D85",
"e@	c #FFCBC7",
"f@	c #CF8586",
"g@	c #9B5F61",
"h@	c #FFF2F3",
"i@	c #0B0B0B",
"j@	c #5D5151",
"k@	c #FFE3E6",
"l@	c #BC9391",
"m@	c #FFEDE2",
"n@	c #B29C8E",
"o@	c #FFDACF",
"p@	c #FFD1CC",
"q@	c #E87A7D",
"r@	c #E15963",
"s@	c #E95563",
"t@	c #E37F7F",
"u@	c #E79A94",
"v@	c #E49F9A",
"w@	c #D7918F",
"x@	c #F9AAAD",
"y@	c #F4B6B9",
"z@	c #989898",
"A@	c #EDEDED",
"B@	c #9F9F9F",
"C@	c #9D9D9D",
"D@	c #FFFCFD",
"E@	c #E4CFCE",
"F@	c #BA9E9B",
"G@	c #FFF3EA",
"H@	c #FFE3D8",
"I@	c #EAB5AF",
"J@	c #E48B8D",
"K@	c #C74350",
"L@	c #BF2235",
"M@	c #D73A4B",
"N@	c #FF8F9B",
"O@	c #FF9298",
"P@	c #C6706F",
"Q@	c #E7A6A0",
"R@	c #FFE4E1",
"S@	c #F5B1B2",
"T@	c #F4BCBF",
"U@	c #FEE3E8",
"V@	c #A0A0A0",
"W@	c #979797",
"X@	c #FFFFFD",
"Y@	c #938B89",
"Z@	c #E5D7D6",
"`@	c #C1A9A7",
" #	c #FFE0DE",
".#	c #FFD2CE",
"+#	c #FFCCCF",
"@#	c #F16E7E",
"##	c #CF3349",
"$#	c #CC3548",
"%#	c #FFADBC",
"&#	c #F6808C",
"*#	c #CF797C",
"=#	c #FFE7E0",
"-#	c #F0CBC3",
";#	c #FFD4D2",
">#	c #C0969A",
",#	c #F9E2EA",
"'#	c #D1C7D0",
")#	c #3E3E3E",
"!#	c #414141",
"~#	c #787677",
"{#	c #C6BDBE",
"]#	c #C3ADAF",
"^#	c #BF9FA0",
"/#	c #F6D3D1",
"(#	c #FFDFDF",
"_#	c #E37B86",
":#	c #C34052",
"<#	c #C2344A",
"[#	c #FF8EA2",
"}#	c #FFA6B4",
"|#	c #E39499",
"1#	c #EAC9C2",
"2#	c #E8DACF",
"3#	c #DCC2C5",
"4#	c #BAA9B3",
"5#	c #FEF0FF",
"6#	c #434343",
"7#	c #A2A2A2",
"8#	c #FFFDFF",
"9#	c #6C676D",
"0#	c #746A72",
"a#	c #FFF9FF",
"b#	c #E8D4D6",
"c#	c #C2B0AC",
"d#	c #C6A9A5",
"e#	c #E7B4B3",
"f#	c #D9878D",
"g#	c #EF7085",
"h#	c #C13D54",
"i#	c #FFA5B2",
"j#	c #CE9395",
"k#	c #FBEDE4",
"l#	c #D4DACC",
"m#	c #E3E4DC",
"n#	c #F0ECEB",
"o#	c #BFB3BF",
"p#	c #F9ECFD",
"q#	c #484848",
"r#	c #4A4A4A",
"s#	c #656567",
"t#	c #706D74",
"u#	c #938D9B",
"v#	c #BBB2C7",
"w#	c #EAE0F8",
"x#	c #F8F0FF",
"y#	c #E6D8F1",
"z#	c #E4CBE1",
"A#	c #C48EA6",
"B#	c #C35E7C",
"C#	c #C35570",
"D#	c #BF6D7B",
"E#	c #A27175",
"F#	c #B5A5A5",
"G#	c #F0F4F3",
"H#	c #DADFE5",
"I#	c #F6F8FF",
"J#	c #F0E7FF",
"K#	c #968BAD",
"L#	c #9289A6",
"M#	c #B9B3CD",
"N#	c #F0EDFF",
"O#	c #ECEEFD",
"P#	c #F3F4F6",
"Q#	c #C0C3CA",
"R#	c #EDEFFF",
"S#	c #9C9DC9",
"T#	c #6664A5",
"U#	c #524D9F",
"V#	c #6456AE",
"W#	c #7158AB",
"X#	c #8F64AB",
"Y#	c #8A477A",
"Z#	c #9D5374",
"`#	c #F0B0BE",
" $	c #B8868F",
".$	c #FFDEEC",
"+$	c #9B849E",
"@$	c #FEEFFF",
"#$	c #C2B8ED",
"$$	c #3D3473",
"%$	c #433D7B",
"&$	c #35326B",
"*$	c #484677",
"=$	c #5F5E86",
"-$	c #EBEDFF",
";$	c #3F3F3F",
">$	c #7F7F7F",
",$	c #FDFDFD",
"'$	c #97989A",
")$	c #F8FDFF",
"!$	c #A0A7BA",
"~$	c #42487A",
"{$	c #4E4F9F",
"]$	c #3B38A1",
"^$	c #473DAE",
"/$	c #8871DD",
"($	c #805FB8",
"_$	c #C99DD8",
":$	c #C492B5",
"<$	c #DDAABB",
"[$	c #885866",
"}$	c #A07890",
"|$	c #7B5B82",
"1$	c #8D75AF",
"2$	c #48397E",
"3$	c #A7A1EB",
"4$	c #EFEDFF",
"5$	c #B4B3F5",
"6$	c #AFB0E9",
"7$	c #8586B4",
"8$	c #75789B",
"9$	c #F8FAFF",
"0$	c #787878",
"a$	c #3A3A3A",
"b$	c #E7E7E7",
"c$	c #A0A2A1",
"d$	c #E4E8E7",
"e$	c #E3E9F5",
"f$	c #DDE2FF",
"g$	c #3F4383",
"h$	c #7878D2",
"i$	c #938DF1",
"j$	c #7E6FCE",
"k$	c #8D74C7",
"l$	c #CEABE5",
"m$	c #C096BC",
"n$	c #9C6F86",
"o$	c #EEC3D7",
"p$	c #B997B2",
"q$	c #CFB3DB",
"r$	c #C7B4EB",
"s$	c #8478B8",
"t$	c #BFBAFD",
"u$	c #E1E1FF",
"v$	c #7978B2",
"w$	c #BBBBED",
"x$	c #BDBFE6",
"y$	c #7D819E",
"z$	c #F0F3FF",
"A$	c #444444",
"B$	c #E8E8E6",
"C$	c #C3C5C0",
"D$	c #9EA1A8",
"E$	c #C4C9E7",
"F$	c #DEE4FF",
"G$	c #6266B0",
"H$	c #26267C",
"I$	c #473F94",
"J$	c #7969B4",
"K$	c #9276B1",
"L$	c #9978A5",
"M$	c #856081",
"N$	c #C09DBB",
"O$	c #C0A2C4",
"P$	c #8F78A2",
"Q$	c #B2A4D9",
"R$	c #DED4FF",
"S$	c #F9F5FF",
"T$	c #7778B0",
"U$	c #D7D7FF",
"V$	c #6F719A",
"W$	c #E1E4FF",
"X$	c #86889F",
"Y$	c #FCFEFF",
"Z$	c #404040",
"`$	c #424242",
" %	c #909090",
".%	c #888886",
"+%	c #8C8B87",
"@%	c #A4A5A9",
"#%	c #C5CAE0",
"$%	c #9EA6CD",
"%%	c #6D73B1",
"&%	c #ACB0F9",
"*%	c #E3E2FF",
"=%	c #E4DCFF",
"-%	c #F9E9FF",
";%	c #C5AEE4",
">%	c #DDC2EF",
",%	c #B59AC3",
"'%	c #9C87B0",
")%	c #9687B2",
"!%	c #B9AFE1",
"~%	c #FCF8FF",
"{%	c #8886B8",
"]%	c #CBCCFA",
"^%	c #898BB4",
"/%	c #C7CAEB",
"(%	c #81839A",
"_%	c #DCDFEE",
":%	c #D8DBE2",
"<%	c #0E0E0E",
"[%	c #3B3B3B",
"}%	c #959394",
"|%	c #AAA6A7",
"1%	c #9D9AA3",
"2%	c #CCCEE3",
"3%	c #E5EBFF",
"4%	c #121C51",
"5%	c #444E8C",
"6%	c #5C60A7",
"7%	c #52529A",
"8%	c #4E4489",
"9%	c #6E609E",
"0%	c #7A69A0",
"a%	c #8878A9",
"b%	c #8E81AF",
"c%	c #9289B6",
"d%	c #827FAC",
"e%	c #C2C1ED",
"f%	c #E1E3FF",
"g%	c #898BB1",
"h%	c #7F82A3",
"i%	c #72738F",
"j%	c #E5E8F9",
"k%	c #EFF3FC",
"l%	c #E1E5E8",
"m%	c #2A2A2A",
"n%	c #939393",
"o%	c #A19FA4",
"p%	c #ACA4B1",
"q%	c #ADA5BA",
"r%	c #DCDCF8",
"s%	c #A0A4CA",
"t%	c #757FB2",
"u%	c #96A2DE",
"v%	c #606AAF",
"w%	c #AAB0FA",
"x%	c #B1B1FB",
"y%	c #B6B0F8",
"z%	c #B9B0F3",
"A%	c #BBB3EF",
"B%	c #A39CD0",
"C%	c #7572A1",
"D%	c #E7E9FF",
"E%	c #F2F6FF",
"F%	c #ABAED1",
"G%	c #6A6B8A",
"H%	c #A5A6C2",
"I%	c #FCFDFF",
"J%	c #E2E4F3",
"K%	c #CFD2D9",
"L%	c #E6E7E9",
"M%	c #212121",
"N%	c #242424",
"O%	c #929292",
"P%	c #A09DA6",
"Q%	c #AAA0B9",
"R%	c #C3B9DC",
"S%	c #DED9FF",
"T%	c #808ABD",
"U%	c #202C68",
"V%	c #505DA1",
"W%	c #7881CC",
"X%	c #8389D7",
"Y%	c #7A7BCB",
"Z%	c #7D7BC6",
"`%	c #9794D7",
" &	c #8B8AC3",
".&	c #8688B8",
"+&	c #CACEF4",
"@&	c #AAAFCF",
"#&	c #BFC0DF",
"$&	c #EFEFFF",
"%&	c #E4E4FE",
"&&	c #DDDEF2",
"*&	c #DEE0ED",
"=&	c #DBDEE5",
"-&	c #EAEBED",
";&	c #151515",
">&	c #1F1F1F",
",&	c #252525",
"'&	c #303030",
")&	c #CDC9D7",
"!&	c #F6EAFF",
"~&	c #D1C4F9",
"{&	c #A8A1D5",
"]&	c #9999CF",
"^&	c #F1F7FF",
"/&	c #37417F",
"(&	c #3C468D",
"_&	c #6F7BC7",
":&	c #767DCE",
"<&	c #878CDE",
"[&	c #686BBA",
"}&	c #383B80",
"|&	c #5C5E99",
"1&	c #C2C6F5",
"2&	c #F5FBFF",
"3&	c #E4E9FF",
"4&	c #E7E8FF",
"5&	c #E3E0FB",
"6&	c #F5F3FF",
"7&	c #F1F0FF",
"8&	c #EBEBF7",
"9&	c #E7E7EF",
"0&	c #DADBDF",
"a&	c #C7C3D2",
"b&	c #8A7EAE",
"c&	c #453775",
"d&	c #CCC2FE",
"e&	c #F3EFFF",
"f&	c #EFF1FF",
"g&	c #ECF4FF",
"h&	c #BCC5FF",
"i&	c #8A93DE",
"j&	c #828BDA",
"k&	c #7279C9",
"l&	c #888EDA",
"m&	c #C8CDFF",
"n&	c #F2F7FF",
"o&	c #F0F4FF",
"p&	c #ECF0FF",
"q&	c #F5F5FF",
"r&	c #A6A4BA",
"s&	c #B5B4C6",
"t&	c #EDEDF9",
"u&	c #F8F8FF",
"v&	c #DCDDE1",
"w&	c #6D6A7B",
"x&	c #857BAD",
"y&	c #867ABA",
"z&	c #7C72AF",
"A&	c #928CC8",
"B&	c #8180BC",
"C&	c #7E80BD",
"D&	c #8C91D1",
"E&	c #8188CC",
"F&	c #7E85CB",
"G&	c #868DD3",
"H&	c #8C91D3",
"I&	c #888ECA",
"J&	c #8288B8",
"K&	c #8287AD",
"L&	c #878CAA",
"M&	c #8E90A9",
"N&	c #8885A0",
"O&	c #928EA7",
"P&	c #D2CFE4",
"Q&	c #FFFCFF",
"R&	c #AEACB9",
"S&	c #D0CFD7",
"T&	c #F3F2F8",
"U&	c #9E9CAA",
"V&	c #7E77A1",
"W&	c #605790",
"X&	c #645D93",
"Y&	c #686497",
"Z&	c #847FB5",
"`&	c #8282B6",
" *	c #7778AE",
".*	c #7D82B9",
"+*	c #8287BF",
"@*	c #6A6FA7",
"#*	c #7076AA",
"$*	c #888EBE",
"%*	c #7C81A9",
"&*	c #646989",
"**	c #9094AF",
"=*	c #DFDFF7",
"-*	c #F8F6FF",
";*	c #D4D1E6",
">*	c #9491A4",
",*	c #898795",
"'*	c #BAB8C3",
")*	c #FFFEFF",
"!*	c #DFDEE3",
"~*	c #E9E9F3",
"{*	c #F2EFFF",
"]*	c #C9C7EE",
"^*	c #F8F3FF",
"/*	c #A8A4C9",
"(*	c #847FA7",
"_*	c #918CB4",
":*	c #75739A",
"<*	c #8787AD",
"[*	c #797BA1",
"}*	c #878BB0",
"|*	c #8D91B4",
"1*	c #8489A9",
"2*	c #8286A3",
"3*	c #8E8FAB",
"4*	c #9898B0",
"5*	c #9B99AF",
"6*	c #878499",
"7*	c #BBB7C8",
"8*	c #DFDBEA",
"9*	c #F1EDFB",
"0*	c #F8F7FF",
"a*	c #E2E1E7",
"b*	c #CECED0",
"c*	c #F0F2FF",
"d*	c #DFE0F5",
"e*	c #E0DEF4",
"f*	c #F0EBFF",
"g*	c #FEF9FF",
"h*	c #F6F2FF",
"i*	c #F9F7FF",
"j*	c #F1F2FF",
"k*	c #EDF0FF",
"l*	c #EFF2FF",
"m*	c #F4F5FF",
"n*	c #F2F3FF",
"o*	c #F0EEFF",
"p*	c #EDEAFF",
"q*	c #E7E3F4",
"r*	c #EAE6F4",
"s*	c #E4E1EA",
"t*	c #DBDAE0",
"u*	c #D9D9DB",
". . . . . . . . . . . . . . . . . . . . . . . . + @ # # $                     ",
". % & * = - ; > , ' ) ! ~ = ; % { ] ; ; ^ ] ~ ! ] / ( _ :                     ",
"# < [ } | * } 1 2 3 ~ ~ 4 5 | 6 7 6 ( 3 6 8 9 0 a b c d e                     ",
"f ^ } g g h i j k 3 g l m n a a o p 9 l q r n d k l s t #                     ",
"u = 0 9 n v b l 7 w a q x y i l k m q g z l b q A B C D e                     ",
"E 7 0 q F G H 1 I J m K L M 5 K J N w I J O m P Q w R S :                     ",
"# T } ( U ) V W K X x J Y J ( Z ` Q 9  ...J +.@.Z #.$.%.&.                    ",
"+ & | p *.T =.| [ Z y  .-.X y Z Y ;.7 V - Z v +.Z r >.,.#                     ",
"'.] ^ o ).J !.w o V 3 ~.J K 1 K {.].^./.(._.:.<.[.}.|.1.2.3.                  ",
"+ < 3 m a 5 a 5 j 4.8 } } 7 g 5.6.7.8.9.0.a.b.c.d.e.f.g.h.i.j.                ",
"k.~ , l.m.J 8 M Q F } n. .F x o.p.q.r.s.t.u.v.w.x.y.z.A.B.C.                  ",
"D.* - q E.F.m J G.F.0 H.I.*.8 J.K.L.M.N.O.P.Q.R.S.T.U.V.W.X.Y.                ",
". Z.y } y *.} `. +;.] J Y X y .+++@+#+$+%+&+*+=+-+;+>+,+'+)+!+~+{+            ",
"]+4 | W ^+L x /+*.(+4.K U m.4 _+:+<+[+}+|+1+2+3+4+5+6+7+8+9+0+a+b+            ",
"# c+| g w o r y 3 ~ 5 m j o o d+e+f+g+h+i+j+k+l+m+n+o+p+q+r+s+t+u+            ",
"v+w+3 v ~.J (+1 x+ .y+y (+J l.z+A+B+C+D+E+F+G+H+I+J+K+L+M+N+O+P+              ",
"&.; ^ h Q+R+X ^+J ..J ( (+`.y S+T+U+V+W+X+Y+Z+`+ @.@+@@@#@$@%@&@              ",
"k.` 4.a V > F.w  .Y *@} m `.h =@-@;@>@,@'@)@!@~@{@]@^@/@(@_@:@<@[@            ",
": }@4.l ).J N l.H |@x+o g J +.1@2@3@4@5@6@7@8@9@0@a@b@c@d@e@f@g@h@            ",
"i@4 4.m ( k r o v h j +.o g o j@k@l@m@n@o@p@q@r@s@r@t@u@v@w@x@y@i.            ",
": > 4.n z@J g y+A@7 B@V M h C@D@E@F@G@H@I@J@K@L@M@N@O@P@Q@R@S@T@U@            ",
". < y g ~.`.g V@J o Q < =.h W@X@Y@Z@`@ #.#+#@###$#%#&#*#=#-#;#>#,#  '#        ",
"e } ^+i )#J a 9 X !#J ..*@l.} L ~#{#]#^#/#(#_#:#<#[#}#|#1#2#R.3#4#5#          ",
"v+2 y n v |@q 6#U l.7#*@E.p p 8#9#0#a#b#c#d#e#f#g#h#i#j#k#l#m#n#o#  p#        ",
"+ 0 4.6#r q#r#i 6#b l n l.l.0 s#t#u#v#w#x#y#z#A#B#C#D#E#F#G#H#I#J#K#L#M#N#O#  ",
"u / o q#x+`.).z B@V r#V@`.[ K P#Q#R#S#T#U#V#W#X#Y#Z#`# $.$+$@$#$$$%$&$*$=$  -$",
"k.] W ;$Q >$*@v x+U ( (+,$6  .'$)$!$~${$]$^$/$($_$:$<$[$}$|$1$2$3$4$5$6$7$8$9$",
"# 0$3 d J ~ J a$l b$r#^ Q+1 Q c$d$e$f$g$h$i$j$k$l$m$n$o$p$q$r$s$t$u$v$w$x$y$z$",
"'.y i k O F.B@r A$*.x ( *@R+F B$C$D$E$F$G$H$I$J$K$L$M$N$O$P$Q$R$S$T$U$V$W$X$Y$",
": ~ y Z$R `$z _ W 5 3 / ; [  %.%+%@%#%$%%%&%*%=%-%;%>%,%'%)%!%~%{%]%^%/%(%_%:%",
"<%o n _ ,.r#[%o p ( * 4 ) > z@}%|%1%2%3%4%5%6%7%8%9%0%a%b%c%d%e%f%g%h%i%j%k%l%",
"u q )#m%C #.A$6#g | [ 6 -.w+n%o%p%q%r%s%t%u%v%w%x%y%z%A%B%C%D%E%F%G%H%I%J%K%L%",
". a$M%N%D R c r#9 h 1 0$` G.O%P%Q%R%S%z$T%U%V%W%X%Y%Z%`% &.&+&@&#&$&%&&&*&=&-&",
"v+;&: . >&,&'&!#l b 4.` { ) n%)&!&~&{&]&^&/&(&_&:&<&[&}&|&1&2&3&4&5&6&7&8&9&0&",
"                              a&b&c&d&e&f&g&h&i&j&k&l&m&n&o&3%p&q&N#r&s&t&u&v&",
"                              w&x&y&z&A&B&C&D&E&F&G&H&I&J&K&L&M&N&O&P&Q&R&S&T&",
"                              U&V&W&X&Y&Z&`& *.*+*@*#*$*%*&***=*-*;*>*,*'*)*!*",
"                              ~*{*]*^*/*(*_*:*<*[*}*|*1*2*3*4*5*6*7*8*9*0*a*b*",
"                                  c*d*e*f*g*h*h*i*j*k*l*m*n*o*p*q*S$r*s*t*u*F."};
